# xmcd CD database file
#
# Track frame offsets:
#	150
#	45613
#	62226
#	83641
#	107274
#	137083
#	152577
#	163106
#	185150
#	212203
#	223664
#	250875
#	274593
#	300913
#
# Disc length: 4222 seconds
#
# Revision: 2
# Processed by: cddbd v1.5.1PL2 Copyright (c) Steve Scherf et al.
# Submitted via: CDex 1.51
#
DISCID=c0107c0e
DTITLE=Varios - World Music Oriental Mistique
DYEAR=2005
DGENRE=New Age
TTITLE0=Baia El Hawa
TTITLE1=El Hilwadi
TTITLE2=Desert Rose
TTITLE3=Ya Salat Ezzin
TTITLE4=Safara
TTITLE5=Exodus
TTITLE6=Kibbutz Wedding
TTITLE7=Hatkivah
TTITLE8=Al Hilwani El Morra
TTITLE9=Egyptian Reggae
TTITLE10=Alsahbgia
TTITLE11=Ya Halawet El Donia
TTITLE12=Thailand Market
TTITLE13=Spirit In The Sky
EXTD=YEAR: 2005
EXTT0=
EXTT1=
EXTT2=
EXTT3=
EXTT4=
EXTT5=
EXTT6=
EXTT7=
EXTT8=
EXTT9=
EXTT10=
EXTT11=
EXTT12=
EXTT13=
PLAYORDER=
